<?xml version="1.0" standalone="no"?>
<!DOCTYPE svg PUBLIC "-//W3C//DTD SVG 20010904//EN"
 "http://www.w3.org/TR/2001/REC-SVG-20010904/DTD/svg10.dtd">
<svg version="1.0" xmlns="http://www.w3.org/2000/svg"
 width="1472.000000pt" height="832.000000pt" viewBox="0 0 1472.000000 832.000000"
 preserveAspectRatio="xMidYMid meet">

<g transform="translate(0.000000,832.000000) scale(0.100000,-0.100000)"
fill="#000000" stroke="none">
<path d="M7090 6843 c-74 -9 -246 -42 -272 -52 -16 -6 -28 -15 -28 -20 0 -5
98 -11 218 -14 262 -6 350 -23 492 -94 151 -75 244 -182 286 -329 14 -49 18
-119 22 -416 l4 -358 74 -45 c41 -25 86 -52 100 -62 l26 -16 -4 424 c-5 478
-5 476 -83 636 -86 175 -238 286 -452 333 -89 19 -276 25 -383 13z"/>
<path d="M5745 6561 c-3 -2 -5 -25 -5 -51 l0 -47 83 -11 c136 -18 215 -56 260
-124 48 -75 47 -57 47 -1415 0 -847 -3 -1288 -10 -1320 -17 -77 -52 -135 -96
-161 -52 -30 -124 -50 -209 -59 l-70 -8 0 -50 0 -50 200 5 c110 3 595 5 1078
5 482 0 877 3 877 6 0 3 -18 30 -41 60 -51 67 -88 141 -124 242 l-28 77 -237
0 c-230 0 -238 1 -243 20 -3 11 -9 20 -14 19 -4 -1 -133 -1 -286 0 l-278 1 3
1253 c3 1181 4 1255 22 1306 22 66 56 113 100 139 36 21 148 48 239 58 l57 5
0 55 c0 30 -3 54 -7 54 -5 0 -69 -7 -143 -15 -305 -35 -718 -35 -1045 -2 -69
7 -128 11 -130 8z"/>
<path d="M8862 6475 c-45 -14 -131 -50 -192 -80 -71 -36 -122 -55 -145 -55
-20 0 -91 18 -158 39 -114 37 -294 78 -303 69 -7 -8 38 -130 50 -132 219 -56
357 -138 438 -263 75 -112 107 -217 155 -498 7 -44 11 -50 32 -50 24 0 24 1
22 100 -1 55 -4 129 -7 165 -3 36 -1 138 5 228 10 160 28 259 57 315 27 52 88
110 141 133 38 17 51 28 47 39 -8 21 -45 18 -142 -10z"/>
<path d="M7530 6406 c-64 -24 -176 -84 -226 -121 -196 -148 -294 -316 -294
-508 0 -193 75 -349 248 -520 167 -165 269 -232 777 -512 359 -198 494 -293
575 -404 25 -34 46 -61 48 -61 6 0 -10 44 -34 92 -83 170 -335 424 -825 835
-280 234 -368 329 -435 466 -40 84 -51 157 -34 240 30 151 131 277 307 383
l33 20 -35 52 c-38 55 -48 59 -105 38z"/>
<path d="M7425 5771 c14 -92 121 -225 306 -381 564 -476 874 -791 969 -985
112 -229 67 -472 -122 -650 -83 -79 -184 -138 -293 -173 -47 -15 -85 -30 -85
-33 0 -12 101 -109 114 -109 32 0 198 54 272 89 114 54 197 112 285 201 131
132 197 276 206 450 14 263 -118 496 -409 723 -116 90 -217 154 -488 309 -530
304 -667 408 -748 568 -12 24 -12 24 -7 -9z"/>
<path d="M7819 4738 c-7 -24 -7 -593 0 -798 10 -297 15 -330 73 -444 138 -273
403 -411 753 -392 140 7 231 24 364 66 116 38 271 109 271 125 0 7 -9 20 -19
29 -16 14 -23 15 -41 6 -35 -19 -238 -59 -361 -70 -281 -27 -541 35 -674 161
-74 70 -110 127 -142 224 l-27 80 -4 457 -4 457 -88 50 c-80 47 -99 56 -101
49z"/>
<path d="M7426 4522 c-29 -55 -46 -189 -56 -427 -5 -132 -14 -257 -20 -278 -6
-22 -9 -42 -5 -45 4 -4 61 -7 128 -6 111 0 165 8 234 35 l25 9 -39 29 c-96 69
-199 239 -224 368 -11 62 -8 257 7 316 5 23 3 27 -15 27 -12 0 -26 -11 -35
-28z"/>
<path d="M5236 2462 c-22 -53 -59 -139 -83 -191 -24 -51 -43 -95 -43 -97 0 -2
20 -4 45 -4 29 0 45 4 45 13 0 20 62 167 70 167 8 0 70 -150 70 -170 0 -6 26
-10 61 -10 45 0 60 3 56 13 -147 352 -158 377 -171 377 -6 0 -29 -44 -50 -98z"/>
<path d="M5920 2531 c-40 -8 -96 -36 -124 -60 -53 -47 -67 -160 -27 -225 23
-37 95 -96 188 -155 99 -62 141 -136 111 -197 -28 -58 -94 -83 -182 -70 -59 9
-102 46 -118 99 -27 98 -53 82 -43 -28 9 -87 16 -96 103 -114 100 -21 199 -6
267 40 39 26 85 107 85 148 0 90 -45 149 -180 237 -53 34 -110 78 -128 98 -86
98 10 213 146 176 47 -12 79 -47 88 -96 8 -45 34 -46 34 -1 0 17 -3 55 -6 84
-6 48 -9 52 -38 57 -66 11 -143 14 -176 7z"/>
<path d="M4350 2513 c0 -7 10 -13 23 -13 46 0 47 -5 47 -341 0 -334 0 -335
-46 -342 -10 -1 -21 -7 -24 -12 -3 -6 92 -11 260 -13 l266 -2 12 70 c7 39 12
79 12 90 0 35 -18 21 -34 -27 -27 -79 -35 -83 -152 -83 -111 0 -149 10 -158
44 -3 11 -6 150 -6 308 0 215 3 289 12 294 7 4 27 10 46 13 18 3 32 11 30 16
-5 16 -288 13 -288 -2z"/>
<path d="M6220 2439 c0 -70 3 -87 13 -83 8 3 20 26 28 52 17 55 28 60 142 61
l77 1 0 -312 c0 -172 -4 -318 -8 -324 -4 -6 -24 -14 -45 -18 -23 -4 -37 -12
-34 -19 5 -15 290 -17 295 -2 2 6 -15 14 -37 18 -30 6 -42 14 -46 30 -2 12 -6
158 -9 325 l-4 302 74 0 c111 0 146 -19 159 -87 3 -20 12 -33 21 -33 12 0 14
15 12 88 l-3 87 -317 2 -318 1 0 -89z"/>
<path d="M6893 2515 c2 -5 18 -16 35 -24 l32 -15 0 -232 c0 -128 5 -256 11
-283 15 -73 59 -128 127 -159 49 -23 70 -26 152 -26 109 0 175 23 228 77 61
63 66 87 72 365 5 269 6 271 55 272 24 0 52 16 43 25 -3 3 -61 7 -129 8 -130
2 -163 -10 -85 -31 44 -11 45 -12 51 -65 4 -29 5 -143 3 -253 -3 -182 -5 -203
-25 -244 -29 -57 -74 -88 -151 -102 -110 -20 -195 25 -221 119 -6 22 -11 143
-11 285 l0 247 42 8 c25 5 44 15 46 23 2 13 -20 15 -138 15 -89 0 -139 -4
-137 -10z"/>
<path d="M7674 2521 c-10 -11 -1 -19 36 -30 l40 -12 0 -318 c0 -344 1 -336
-54 -343 -16 -1 -31 -8 -33 -14 -3 -8 55 -14 199 -19 171 -6 214 -5 266 9 119
30 209 105 260 214 24 50 27 70 27 157 0 87 -3 107 -26 156 -51 108 -138 176
-249 194 -47 8 -459 13 -466 6z m446 -65 c119 -44 188 -181 177 -354 -8 -135
-63 -222 -164 -258 -45 -16 -216 -18 -244 -4 -18 10 -19 25 -19 327 l0 316
103 -6 c57 -2 122 -12 147 -21z"/>
<path d="M8450 2515 c0 -6 20 -16 44 -23 42 -11 43 -13 50 -58 3 -26 6 -169 6
-319 0 -206 -3 -275 -12 -282 -7 -6 -30 -13 -51 -17 -23 -4 -37 -12 -34 -19 6
-18 515 -23 522 -5 8 22 23 143 19 150 -10 16 -33 -6 -38 -38 -11 -56 -36 -65
-167 -62 l-114 3 -3 148 -3 148 103 -3 103 -3 15 -32 c28 -60 40 -41 40 62 0
80 -2 93 -15 89 -8 -4 -15 -14 -15 -23 0 -34 -22 -41 -127 -41 l-103 0 0 140
0 140 108 0 c121 0 137 -8 144 -65 2 -19 9 -30 18 -30 12 0 16 16 18 75 l3 75
-256 0 c-170 0 -255 -3 -255 -10z"/>
<path d="M9156 2523 c-3 -4 -6 -158 -6 -343 0 -314 -1 -338 -18 -353 -10 -10
-29 -17 -41 -17 -13 0 -21 -5 -19 -12 3 -8 42 -12 129 -12 128 -1 168 12 85
27 -63 12 -66 27 -66 295 l0 225 143 -149 c79 -82 196 -207 262 -277 65 -70
124 -127 132 -125 12 2 15 61 20 338 3 184 9 343 14 352 5 9 23 19 39 23 61
13 22 25 -89 28 -77 1 -116 -2 -118 -9 -2 -6 9 -14 25 -17 52 -11 59 -27 67
-149 3 -62 5 -173 3 -246 l-3 -134 -202 219 c-275 298 -337 356 -357 336z"/>
<path d="M9890 2439 c0 -101 14 -115 36 -39 19 63 33 70 141 70 l93 0 0 -299
c0 -169 -4 -311 -10 -325 -7 -20 -19 -27 -50 -32 -23 -4 -39 -12 -37 -18 5
-16 299 -15 304 2 3 8 -6 12 -27 12 -17 0 -40 5 -51 10 -18 10 -19 25 -19 330
l0 320 75 0 c100 0 129 -15 144 -75 8 -30 17 -45 28 -45 13 0 15 8 9 53 -3 28
-6 69 -6 90 l0 37 -315 0 -315 0 0 -91z"/>
<path d="M5104 2090 c-14 -5 -34 -38 -58 -97 -52 -122 -78 -159 -121 -173 -66
-22 -36 -30 106 -30 108 0 140 3 137 13 -3 6 -13 13 -24 15 -59 9 -64 12 -64
43 0 34 63 195 87 222 15 16 14 17 -13 16 -16 0 -38 -4 -50 -9z"/>
<path d="M5420 1990 c58 -151 58 -156 16 -170 -67 -22 -37 -30 109 -30 85 0
145 4 145 10 0 5 -20 18 -45 29 -42 19 -49 27 -85 103 -21 46 -45 100 -54 121
-15 36 -16 37 -69 37 l-54 0 37 -100z"/>
<path d="M6076 1565 c-58 -20 -104 -71 -122 -133 -52 -178 126 -323 298 -242
63 29 76 46 55 67 -15 15 -19 14 -55 -11 -48 -33 -120 -38 -169 -13 -70 36
-99 122 -69 200 33 88 123 118 220 74 l56 -26 6 26 c5 19 2 28 -12 37 -63 37
-141 45 -208 21z"/>
<path d="M6575 1561 c-36 -16 -104 -80 -105 -99 -1 -4 -5 -27 -9 -51 -18 -91
31 -186 117 -227 48 -23 139 -21 188 4 197 101 120 393 -103 392 -26 0 -66 -9
-88 -19z m161 -50 c108 -49 114 -208 12 -271 -40 -24 -116 -27 -158 -5 -71 37
-100 165 -53 231 44 62 123 80 199 45z"/>
<path d="M8361 1568 c-50 -17 -117 -85 -130 -133 -20 -74 -12 -118 36 -187 54
-79 184 -105 281 -56 l47 23 3 78 3 78 -68 -3 c-55 -2 -68 -6 -71 -20 -3 -15
4 -18 36 -18 21 0 41 -2 44 -5 2 -3 2 -24 -1 -47 -6 -41 -8 -43 -53 -56 -137
-38 -249 90 -194 222 32 77 139 108 231 67 38 -17 50 -19 57 -9 12 20 5 30
-37 52 -46 23 -135 30 -184 14z"/>
<path d="M8883 1572 l-103 -3 0 -199 0 -200 130 0 130 0 0 25 0 25 -100 0
-100 0 0 65 0 65 75 0 c73 0 75 1 75 25 0 24 -2 25 -75 25 l-76 0 3 63 3 62
95 1 c87 2 95 3 98 22 4 25 -17 28 -155 24z"/>
<path d="M7030 1370 l0 -200 125 0 125 0 0 25 c0 25 0 25 -95 25 l-95 0 0 175
0 175 -30 0 -30 0 0 -200z"/>
<path d="M7430 1371 l0 -201 125 0 125 0 0 25 c0 25 0 25 -95 25 l-95 0 -2
173 -3 172 -27 3 -28 3 0 -200z"/>
<path d="M7830 1370 l0 -201 133 3 c124 3 132 4 132 23 0 19 -8 20 -102 23
l-103 3 0 64 0 65 81 0 c78 0 80 1 77 23 -3 20 -9 22 -80 25 l-78 3 0 64 0 65
95 0 c88 0 95 1 95 20 0 19 -7 20 -125 20 l-125 0 0 -200z"/>
</g>
</svg>
